<?xml version="1.0" encoding="UTF-8"?>
<svg id="Layer_2" data-name="Layer 2" xmlns="http://www.w3.org/2000/svg" viewBox="0 0 175.88 37.57">
  <defs>
    <style>
      .cls-1 {
        fill: #fff;
      }

      .cls-2 {
        fill: #40bcf4;
      }

      .cls-3 {
        fill: #01e054;
      }

      .cls-4 {
        fill: #ff8000;
      }
    </style>
  </defs>
  <g id="Layer_1-2" data-name="Layer 1">
    <g>
      <path class="cls-1" d="M0,28.04V11.3h8.79v15.32c0,2.9,1.13,4.32,3.63,4.32,2.65,0,4.37-1.57,4.37-4.86v-14.78h8.79v25.68h-8.79v-3.98c-1.38,2.65-3.88,4.57-8.15,4.57-4.96,0-8.64-3.04-8.64-9.53Z"/>
      <path class="cls-1" d="M30.79,11.3h8.79v4.12c1.38-2.65,4.17-4.81,8.45-4.81,4.96,0,8.4,3.09,8.4,9.67v16.69h-8.79v-14.93c0-2.9-1.13-4.32-3.68-4.32s-4.37,1.57-4.37,4.86v14.39h-8.79V11.3Z"/>
      <path class="cls-4" d="M78.22,10.61c-3.88,0-6.53,2.06-8.01,4.52V0h-8.79v36.98h8.79v-3.98c1.28,2.75,4.13,4.57,7.96,4.57,6.04,0,10.9-4.42,10.9-13.26v-.4c0-8.78-4.86-13.3-10.85-13.3ZM80.13,24.31c0,4.22-1.76,6.53-5.05,6.53s-5.11-2.21-5.11-6.58v-.39c0-4.33,1.91-6.63,5.11-6.63s5.05,2.16,5.05,6.67v.4Z"/>
      <path class="cls-3" d="M105.71,10.61c-7.95,0-14.09,5.2-14.09,13.45v.4c0,8.29,6.14,13.11,14.04,13.11s14.05-5.01,14.05-13.36v-.39c0-8.15-6.09-13.21-14-13.21ZM110.77,24.31c0,4.27-1.77,6.72-5.06,6.72s-5.1-2.4-5.1-6.82v-.39c0-4.32,1.81-6.63,5.1-6.63s5.06,2.4,5.06,6.72v.4Z"/>
      <polygon class="cls-2" points="127.81 23.91 119.8 11.3 129.92 11.3 133.9 18.07 137.78 11.3 146.81 11.3 138.71 23.23 147.6 36.98 137.48 36.98 132.92 29.32 128.25 36.98 119.26 36.98 127.81 23.91"/>
      <path class="cls-1" d="M167.09,0v14.93c-1.47-2.6-3.88-4.32-7.91-4.32-6.08,0-10.9,4.66-10.9,13.4v.4c0,8.88,4.87,13.16,10.81,13.16,3.88,0,6.72-2.12,8-4.77v4.18h8.79V0h-8.79ZM167.34,24.26c0,4.37-1.97,6.58-5.16,6.58s-4.96-2.21-4.96-6.53v-.4c0-4.46,1.77-6.67,5.06-6.67s5.06,2.3,5.06,6.63v.39Z"/>
    </g>
  </g>
</svg>